<svg width="18" height="18" viewBox="0 0 18 18" fill="none" xmlns="http://www.w3.org/2000/svg">
<path fill-rule="evenodd" clip-rule="evenodd" d="M8.99175 0.666687C4.39175 0.666687 0.666748 4.40002 0.666748 9.00002C0.666748 13.6 4.39175 17.3334 8.99175 17.3334C13.6001 17.3334 17.3334 13.6 17.3334 9.00002C17.3334 4.40002 13.6001 0.666687 8.99175 0.666687ZM9.00024 15.6667C5.31691 15.6667 2.33358 12.6834 2.33358 9.00002C2.33358 5.31669 5.31691 2.33335 9.00024 2.33335C12.6836 2.33335 15.6669 5.31669 15.6669 9.00002C15.6669 12.6834 12.6836 15.6667 9.00024 15.6667ZM8.16675 4.83335H9.41675V9.20835L13.1667 11.4334L12.5417 12.4584L8.16675 9.83335V4.83335Z" fill="#2F80ED"/>
</svg>
